<?xml version="1.0" encoding="utf-8"?>
<!-- Generator: Adobe Illustrator 23.0.0, SVG Export Plug-In . SVG Version: 6.00 Build 0)  -->
<svg version="1.1" id="Layer_1_copy" xmlns="http://www.w3.org/2000/svg" xmlns:xlink="http://www.w3.org/1999/xlink" x="0px"
	 y="0px" viewBox="0 0 148.8 85.9" style="enable-background:new 0 0 148.8 85.9;" xml:space="preserve">
<style type="text/css">
	.st0{fill:#FF665A;}
	.st1{fill:#EC4D37;}
	.st2{fill:#4C4848;}
	.st3{fill:#1D1B1B;}
	.st4{fill:#262424;}
	.st5{fill:#4C4949;}
	.st6{fill:#262525;}
</style>
<title>Asset 1</title>
<g id="OBJECTS_1_">
	<polygon class="st0" points="74.4,21.5 74.4,64.4 111.6,43 	"/>
	<polygon class="st1" points="111.6,0 74.4,21.5 111.6,43 	"/>
	<polygon class="st2" points="148.8,21.5 111.6,0 111.6,43 	"/>
	<polygon class="st3" points="111.6,43 148.8,64.4 148.8,21.5 	"/>
	<polygon class="st3" points="74.4,64.4 111.6,85.9 111.6,43 	"/>
	<polygon class="st4" points="111.6,85.9 148.8,64.4 111.6,43 	"/>
	<polygon class="st1" points="74.4,64.4 74.4,21.5 37.2,43 	"/>
	<polygon class="st0" points="37.2,85.9 74.4,64.4 37.2,43 	"/>
	<polygon class="st5" points="0,64.4 37.2,85.9 37.2,43 	"/>
	<polygon class="st3" points="37.2,43 0,21.5 0,64.4 	"/>
	<polygon class="st3" points="74.4,21.5 37.2,0 37.2,43 	"/>
	<polygon class="st6" points="37.2,0 0,21.5 37.2,43 	"/>
</g>
</svg>
