<svg xmlns="http://www.w3.org/2000/svg" xmlns:xlink="http://www.w3.org/1999/xlink" viewBox="0 0 268.74 367.54"><defs><style>.cls-1{mask:url(#mask);}.cls-10,.cls-2,.cls-3,.cls-9{mix-blend-mode:multiply;}.cls-2{fill:url(#linear-gradient);}.cls-3{fill:url(#linear-gradient-2);}.cls-4{isolation:isolate;}.cls-5,.cls-63,.cls-67,.cls-94{mix-blend-mode:lighten;}.cls-6{fill:url(#linear-gradient-3);}.cls-7{fill:url(#linear-gradient-4);}.cls-8{mask:url(#mask-3);}.cls-63,.cls-9{opacity:0.4;}.cls-9{fill:url(#linear-gradient-5);}.cls-10{opacity:0.5;fill:url(#linear-gradient-6);}.cls-11{fill:url(#linear-gradient-7);}.cls-12{fill:url(#linear-gradient-8);}.cls-13{opacity:0.3;}.cls-14,.cls-64,.cls-65,.cls-66{mix-blend-mode:overlay;}.cls-15{fill:url(#linear-gradient-9);}.cls-16{fill:url(#linear-gradient-10);}.cls-17,.cls-18,.cls-19,.cls-20,.cls-23,.cls-24,.cls-25,.cls-26,.cls-29,.cls-30,.cls-31,.cls-32,.cls-35,.cls-36,.cls-37,.cls-38,.cls-41,.cls-42,.cls-43,.cls-44,.cls-47,.cls-48,.cls-49,.cls-50,.cls-53,.cls-54,.cls-55,.cls-56,.cls-59,.cls-60,.cls-61,.cls-62,.cls-67,.cls-71,.cls-72,.cls-73,.cls-74,.cls-77,.cls-78,.cls-79,.cls-80,.cls-84,.cls-85,.cls-86,.cls-87,.cls-90,.cls-91,.cls-92,.cls-93,.cls-94{opacity:0.7;}.cls-17{fill:url(#linear-gradient-11);}.cls-18{fill:url(#linear-gradient-12);}.cls-19{fill:url(#linear-gradient-13);}.cls-20{fill:url(#linear-gradient-14);}.cls-21{fill:url(#linear-gradient-15);}.cls-22{fill:url(#linear-gradient-16);}.cls-23{fill:url(#linear-gradient-17);}.cls-24{fill:url(#linear-gradient-18);}.cls-25{fill:url(#linear-gradient-19);}.cls-26{fill:url(#linear-gradient-20);}.cls-27{fill:url(#linear-gradient-21);}.cls-28{fill:url(#linear-gradient-22);}.cls-29{fill:url(#linear-gradient-23);}.cls-30{fill:url(#linear-gradient-24);}.cls-31{fill:url(#linear-gradient-25);}.cls-32{fill:url(#linear-gradient-26);}.cls-33{fill:url(#linear-gradient-27);}.cls-34{fill:url(#linear-gradient-28);}.cls-35{fill:url(#linear-gradient-29);}.cls-36{fill:url(#linear-gradient-30);}.cls-37{fill:url(#linear-gradient-31);}.cls-38{fill:url(#linear-gradient-32);}.cls-39{fill:url(#linear-gradient-33);}.cls-40{fill:url(#linear-gradient-34);}.cls-41{fill:url(#linear-gradient-35);}.cls-42{fill:url(#linear-gradient-36);}.cls-43{fill:url(#linear-gradient-37);}.cls-44{fill:url(#linear-gradient-38);}.cls-45{fill:url(#linear-gradient-39);}.cls-46{fill:url(#linear-gradient-40);}.cls-47{fill:url(#linear-gradient-41);}.cls-48{fill:url(#linear-gradient-42);}.cls-49{fill:url(#linear-gradient-43);}.cls-50{fill:url(#linear-gradient-44);}.cls-51{fill:url(#linear-gradient-45);}.cls-52{fill:url(#linear-gradient-46);}.cls-53{fill:url(#linear-gradient-47);}.cls-54{fill:url(#linear-gradient-48);}.cls-55{fill:url(#linear-gradient-49);}.cls-56{fill:url(#linear-gradient-50);}.cls-57{fill:url(#linear-gradient-51);}.cls-58{fill:url(#linear-gradient-52);}.cls-59{fill:url(#linear-gradient-53);}.cls-60{fill:url(#linear-gradient-54);}.cls-61{fill:url(#linear-gradient-55);}.cls-62{fill:url(#linear-gradient-56);}.cls-63{fill:url(#linear-gradient-57);}.cls-64{fill:url(#linear-gradient-58);}.cls-65{fill:url(#linear-gradient-59);}.cls-66{fill:url(#linear-gradient-60);}.cls-68{fill:url(#linear-gradient-61);}.cls-69{fill:url(#linear-gradient-62);}.cls-70{fill:url(#linear-gradient-63);}.cls-71{fill:url(#linear-gradient-64);}.cls-72{fill:url(#linear-gradient-65);}.cls-73{fill:url(#linear-gradient-66);}.cls-74{fill:url(#linear-gradient-67);}.cls-75{fill:url(#linear-gradient-68);}.cls-76{fill:url(#linear-gradient-69);}.cls-77{fill:url(#linear-gradient-70);}.cls-78{fill:url(#linear-gradient-71);}.cls-79{fill:url(#linear-gradient-72);}.cls-80{fill:url(#linear-gradient-73);}.cls-81{opacity:0.2;}.cls-82{fill:url(#linear-gradient-74);}.cls-83{fill:url(#linear-gradient-75);}.cls-84{fill:url(#linear-gradient-76);}.cls-85{fill:url(#linear-gradient-77);}.cls-86{fill:url(#linear-gradient-78);}.cls-87{fill:url(#linear-gradient-79);}.cls-88{fill:url(#linear-gradient-80);}.cls-89{fill:url(#linear-gradient-81);}.cls-90{fill:url(#linear-gradient-82);}.cls-91{fill:url(#linear-gradient-83);}.cls-92{fill:url(#linear-gradient-84);}.cls-93{fill:url(#linear-gradient-85);}.cls-94{fill:url(#linear-gradient-86);}.cls-95{fill:url(#linear-gradient-87);}.cls-96{fill:url(#linear-gradient-88);}.cls-97{filter:url(#luminosity-noclip-3);}.cls-98{filter:url(#luminosity-noclip);}</style><filter id="luminosity-noclip" x="69.75" y="-8392" width="327.83" height="32766" filterUnits="userSpaceOnUse" color-interpolation-filters="sRGB"><feFlood flood-color="#fff" result="bg"/><feBlend in="SourceGraphic" in2="bg"/></filter><mask id="mask" x="69.75" y="-8392" width="327.83" height="32766" maskUnits="userSpaceOnUse"><g class="cls-98"/></mask><linearGradient id="linear-gradient" x1="268.65" y1="330.75" x2="264.54" y2="323.5" gradientUnits="userSpaceOnUse"><stop offset="0" stop-color="#fff"/><stop offset="1"/></linearGradient><linearGradient id="linear-gradient-2" x1="181.13" y1="358.86" x2="186.14" y2="350.24" xlink:href="#linear-gradient"/><linearGradient id="linear-gradient-3" x1="537.31" y1="384.1" x2="126.14" y2="335.9" gradientUnits="userSpaceOnUse"><stop offset="0" stop-color="#494949"/><stop offset="1" stop-color="#b5b5b5"/></linearGradient><linearGradient id="linear-gradient-4" x1="106.84" y1="312.67" x2="297.79" y2="312.67" gradientUnits="userSpaceOnUse"><stop offset="0" stop-color="#494949"/><stop offset="1" stop-color="#494949"/></linearGradient><filter id="luminosity-noclip-3" x="69.75" y="179.47" width="327.83" height="187.49" filterUnits="userSpaceOnUse" color-interpolation-filters="sRGB"><feFlood flood-color="#fff" result="bg"/><feBlend in="SourceGraphic" in2="bg"/></filter><mask id="mask-3" x="12.74" y="157.01" width="327.83" height="187.49" maskUnits="userSpaceOnUse"><g class="cls-97"><g transform="translate(-57.02 -22.46)"><g class="cls-1"><path class="cls-2" d="M392.67,241.56c-6.26-6.33-6.47-.65-5.23,6.23L272.69,181.26a16.87,16.87,0,0,0-16,.5l-168.39,97c-6.82-3.12-13.08-4.14-15.89.45-5.1,8.32-1.67,12.84,1.21,15.64a10.07,10.07,0,0,0,2.63,2l.14.08,117.84,68.24a16.58,16.58,0,0,0,15.78-.5L390.9,260.36S404.67,253.71,392.67,241.56Z"/></g></g></g></mask><linearGradient id="linear-gradient-5" x1="228.15" y1="353.88" x2="225.11" y2="348.5" gradientUnits="userSpaceOnUse"><stop offset="0" stop-color="#242424"/><stop offset="1" stop-color="#bbb"/></linearGradient><linearGradient id="linear-gradient-6" x1="175.11" y1="354.79" x2="177.7" y2="350.33" xlink:href="#linear-gradient-5"/><linearGradient id="linear-gradient-7" x1="449.4" y1="529.27" x2="198.35" y2="299.06" gradientTransform="translate(2.95 -3.37) rotate(0.81)" gradientUnits="userSpaceOnUse"><stop offset="0" stop-color="#8f8f8f"/><stop offset="1" stop-color="#fafafa"/></linearGradient><linearGradient id="linear-gradient-8" x1="133.15" y1="318.94" x2="547.46" y2="224.05" gradientUnits="userSpaceOnUse"><stop offset="0" stop-color="#7c7c7c"/><stop offset="1" stop-color="#fafafa"/></linearGradient><linearGradient id="linear-gradient-9" x1="2706.69" y1="241.5" x2="2706.69" y2="197.71" gradientTransform="matrix(-1, 0, 0, 1, 2748.31, -22.46)" gradientUnits="userSpaceOnUse"><stop offset="0" stop-color="#959595"/><stop offset="1" stop-color="#404040"/></linearGradient><linearGradient id="linear-gradient-10" x1="2706.69" y1="234.45" x2="2706.69" y2="190.66" gradientTransform="matrix(-1, 0, 0, 1, 2748.31, -22.46)" gradientUnits="userSpaceOnUse"><stop offset="0" stop-color="gray"/><stop offset="1" stop-color="#404040"/></linearGradient><linearGradient id="linear-gradient-11" x1="2710.52" y1="185.72" x2="2663.11" y2="213.9" gradientTransform="matrix(-1, 0, 0, 1, 2748.31, -22.46)" gradientUnits="userSpaceOnUse"><stop offset="0" stop-color="#494949"/><stop offset="1" stop-color="#afafaf"/></linearGradient><linearGradient id="linear-gradient-12" x1="2748.75" y1="229.13" x2="2705.34" y2="186.67" xlink:href="#linear-gradient-11"/><linearGradient id="linear-gradient-13" x1="2714.15" y1="265.42" x2="2672.26" y2="231.53" xlink:href="#linear-gradient-11"/><linearGradient id="linear-gradient-14" x1="2739.03" y1="260.89" x2="2714.09" y2="238.04" xlink:href="#linear-gradient-11"/><linearGradient id="linear-gradient-15" x1="2706.69" y1="241.37" x2="2706.69" y2="197.59" xlink:href="#linear-gradient-9"/><linearGradient id="linear-gradient-16" x1="2706.69" y1="234.33" x2="2706.69" y2="190.54" xlink:href="#linear-gradient-10"/><linearGradient id="linear-gradient-17" x1="2710.52" y1="185.6" x2="2663.11" y2="213.78" xlink:href="#linear-gradient-11"/><linearGradient id="linear-gradient-18" x1="2748.75" y1="229.01" x2="2705.34" y2="186.55" xlink:href="#linear-gradient-11"/><linearGradient id="linear-gradient-19" x1="2714.15" y1="265.3" x2="2672.26" y2="231.41" xlink:href="#linear-gradient-11"/><linearGradient id="linear-gradient-20" x1="2739.03" y1="260.77" x2="2714.09" y2="237.92" xlink:href="#linear-gradient-11"/><linearGradient id="linear-gradient-21" x1="2687.68" y1="255.7" x2="2687.68" y2="211.91" xlink:href="#linear-gradient-9"/><linearGradient id="linear-gradient-22" x1="2687.68" y1="248.65" x2="2687.68" y2="204.86" xlink:href="#linear-gradient-10"/><linearGradient id="linear-gradient-23" x1="2691.5" y1="199.92" x2="2644.1" y2="228.1" xlink:href="#linear-gradient-11"/><linearGradient id="linear-gradient-24" x1="2729.73" y1="243.33" x2="2686.32" y2="200.87" xlink:href="#linear-gradient-11"/><linearGradient id="linear-gradient-25" x1="2695.13" y1="279.62" x2="2653.24" y2="245.73" xlink:href="#linear-gradient-11"/><linearGradient id="linear-gradient-26" x1="2720.02" y1="275.09" x2="2695.07" y2="252.24" xlink:href="#linear-gradient-11"/><linearGradient id="linear-gradient-27" x1="2687.68" y1="255.57" x2="2687.68" y2="211.79" xlink:href="#linear-gradient-9"/><linearGradient id="linear-gradient-28" x1="2687.68" y1="248.53" x2="2687.68" y2="204.74" xlink:href="#linear-gradient-10"/><linearGradient id="linear-gradient-29" x1="2691.5" y1="199.8" x2="2644.1" y2="227.98" xlink:href="#linear-gradient-11"/><linearGradient id="linear-gradient-30" x1="2729.73" y1="243.21" x2="2686.32" y2="200.75" xlink:href="#linear-gradient-11"/><linearGradient id="linear-gradient-31" x1="2695.13" y1="279.5" x2="2653.24" y2="245.61" xlink:href="#linear-gradient-11"/><linearGradient id="linear-gradient-32" x1="2720.02" y1="274.97" x2="2695.07" y2="252.12" xlink:href="#linear-gradient-11"/><linearGradient id="linear-gradient-33" x1="2501.18" y1="247.43" x2="2501.18" y2="217.87" xlink:href="#linear-gradient-9"/><linearGradient id="linear-gradient-34" x1="2501.18" y1="242.68" x2="2501.18" y2="213.11" xlink:href="#linear-gradient-10"/><linearGradient id="linear-gradient-35" x1="2503.77" y1="209.77" x2="2471.76" y2="228.8" xlink:href="#linear-gradient-11"/><linearGradient id="linear-gradient-36" x1="2529.58" y1="239.08" x2="2500.27" y2="210.42" xlink:href="#linear-gradient-11"/><linearGradient id="linear-gradient-37" x1="2506.21" y1="263.59" x2="2477.93" y2="240.71" xlink:href="#linear-gradient-11"/><linearGradient id="linear-gradient-38" x1="2523.02" y1="260.53" x2="2506.18" y2="245.1" xlink:href="#linear-gradient-11"/><linearGradient id="linear-gradient-39" x1="2501.18" y1="247.68" x2="2501.18" y2="218.12" xlink:href="#linear-gradient-9"/><linearGradient id="linear-gradient-40" x1="2501.18" y1="242.93" x2="2501.18" y2="213.36" xlink:href="#linear-gradient-10"/><linearGradient id="linear-gradient-41" x1="2503.77" y1="210.02" x2="2471.76" y2="229.05" xlink:href="#linear-gradient-11"/><linearGradient id="linear-gradient-42" x1="2529.58" y1="239.33" x2="2500.27" y2="210.67" xlink:href="#linear-gradient-11"/><linearGradient id="linear-gradient-43" x1="2506.21" y1="263.84" x2="2477.93" y2="240.96" xlink:href="#linear-gradient-11"/><linearGradient id="linear-gradient-44" x1="2523.02" y1="260.78" x2="2506.18" y2="245.35" xlink:href="#linear-gradient-11"/><linearGradient id="linear-gradient-45" x1="2515.54" y1="256.77" x2="2515.54" y2="227.2" xlink:href="#linear-gradient-9"/><linearGradient id="linear-gradient-46" x1="2515.54" y1="252.01" x2="2515.54" y2="222.45" xlink:href="#linear-gradient-10"/><linearGradient id="linear-gradient-47" x1="2518.13" y1="219.11" x2="2486.12" y2="238.14" xlink:href="#linear-gradient-11"/><linearGradient id="linear-gradient-48" x1="2543.94" y1="248.42" x2="2514.63" y2="219.75" xlink:href="#linear-gradient-11"/><linearGradient id="linear-gradient-49" x1="2520.57" y1="272.93" x2="2492.29" y2="250.04" xlink:href="#linear-gradient-11"/><linearGradient id="linear-gradient-50" x1="2537.38" y1="269.87" x2="2520.54" y2="254.44" xlink:href="#linear-gradient-11"/><linearGradient id="linear-gradient-51" x1="2515.54" y1="257.02" x2="2515.54" y2="227.45" xlink:href="#linear-gradient-9"/><linearGradient id="linear-gradient-52" x1="2515.54" y1="252.26" x2="2515.54" y2="222.7" xlink:href="#linear-gradient-10"/><linearGradient id="linear-gradient-53" x1="2518.13" y1="219.36" x2="2486.12" y2="238.39" xlink:href="#linear-gradient-11"/><linearGradient id="linear-gradient-54" x1="2543.94" y1="248.67" x2="2514.63" y2="220" xlink:href="#linear-gradient-11"/><linearGradient id="linear-gradient-55" x1="2520.57" y1="273.18" x2="2492.29" y2="250.29" xlink:href="#linear-gradient-11"/><linearGradient id="linear-gradient-56" x1="2537.38" y1="270.12" x2="2520.54" y2="254.69" xlink:href="#linear-gradient-11"/><linearGradient id="linear-gradient-57" x1="202.21" y1="-78.18" x2="202.21" y2="311.16" gradientUnits="userSpaceOnUse"><stop offset="0" stop-color="#494949"/><stop offset="1" stop-color="#727272"/></linearGradient><linearGradient id="linear-gradient-58" x1="350.33" y1="281.36" x2="124.79" y2="281.61" xlink:href="#linear-gradient-57"/><linearGradient id="linear-gradient-59" x1="207.86" y1="314.18" x2="195.17" y2="314.18" gradientUnits="userSpaceOnUse"><stop offset="0" stop-color="#5e5e5e"/><stop offset="1" stop-color="#7e7e7e"/></linearGradient><linearGradient id="linear-gradient-60" x1="347.24" y1="263.96" x2="122.97" y2="263.96" xlink:href="#linear-gradient-57"/><linearGradient id="linear-gradient-61" x1="537.31" y1="189.19" x2="126.14" y2="140.99" xlink:href="#linear-gradient-3"/><linearGradient id="linear-gradient-62" x1="2595.94" y1="229.59" x2="2595.94" y2="169.79" xlink:href="#linear-gradient-9"/><linearGradient id="linear-gradient-63" x1="2595.94" y1="219.97" x2="2595.94" y2="160.17" xlink:href="#linear-gradient-10"/><linearGradient id="linear-gradient-64" x1="2601.17" y1="153.42" x2="2536.42" y2="191.9" xlink:href="#linear-gradient-11"/><linearGradient id="linear-gradient-65" x1="2653.37" y1="212.7" x2="2594.09" y2="154.72" xlink:href="#linear-gradient-11"/><linearGradient id="linear-gradient-66" x1="2606.12" y1="262.27" x2="2548.91" y2="215.99" xlink:href="#linear-gradient-11"/><linearGradient id="linear-gradient-67" x1="2640.1" y1="256.08" x2="2606.04" y2="224.88" xlink:href="#linear-gradient-11"/><linearGradient id="linear-gradient-68" x1="2595.94" y1="229.52" x2="2595.94" y2="169.72" xlink:href="#linear-gradient-9"/><linearGradient id="linear-gradient-69" x1="2595.94" y1="219.9" x2="2595.94" y2="160.1" xlink:href="#linear-gradient-10"/><linearGradient id="linear-gradient-70" x1="2601.17" y1="153.35" x2="2536.42" y2="191.83" xlink:href="#linear-gradient-11"/><linearGradient id="linear-gradient-71" x1="2653.37" y1="212.63" x2="2594.09" y2="154.65" xlink:href="#linear-gradient-11"/><linearGradient id="linear-gradient-72" x1="2606.12" y1="262.2" x2="2548.91" y2="215.91" xlink:href="#linear-gradient-11"/><linearGradient id="linear-gradient-73" x1="2640.1" y1="256.01" x2="2606.04" y2="224.81" xlink:href="#linear-gradient-11"/><linearGradient id="linear-gradient-74" x1="2604.47" y1="223.25" x2="2604.47" y2="163.45" xlink:href="#linear-gradient-9"/><linearGradient id="linear-gradient-75" x1="2604.47" y1="213.63" x2="2604.47" y2="153.83" xlink:href="#linear-gradient-10"/><linearGradient id="linear-gradient-76" x1="2609.7" y1="147.08" x2="2544.96" y2="185.56" xlink:href="#linear-gradient-11"/><linearGradient id="linear-gradient-77" x1="2661.9" y1="206.36" x2="2602.62" y2="148.38" xlink:href="#linear-gradient-11"/><linearGradient id="linear-gradient-78" x1="2614.65" y1="255.93" x2="2557.45" y2="209.65" xlink:href="#linear-gradient-11"/><linearGradient id="linear-gradient-79" x1="2648.64" y1="249.74" x2="2614.58" y2="218.54" xlink:href="#linear-gradient-11"/><linearGradient id="linear-gradient-80" x1="2604.47" y1="223.18" x2="2604.47" y2="163.38" xlink:href="#linear-gradient-9"/><linearGradient id="linear-gradient-81" x1="2604.47" y1="213.56" x2="2604.47" y2="153.76" xlink:href="#linear-gradient-10"/><linearGradient id="linear-gradient-82" x1="2609.7" y1="147.01" x2="2544.96" y2="185.49" xlink:href="#linear-gradient-11"/><linearGradient id="linear-gradient-83" x1="2661.9" y1="206.29" x2="2602.62" y2="148.31" xlink:href="#linear-gradient-11"/><linearGradient id="linear-gradient-84" x1="2614.65" y1="255.86" x2="2557.45" y2="209.58" xlink:href="#linear-gradient-11"/><linearGradient id="linear-gradient-85" x1="2648.64" y1="249.67" x2="2614.58" y2="218.47" xlink:href="#linear-gradient-11"/><linearGradient id="linear-gradient-86" x1="535.68" y1="91.63" x2="14.35" y2="91.63" xlink:href="#linear-gradient-3"/><linearGradient id="linear-gradient-87" x1="537.89" y1="115.36" x2="126.72" y2="67.16" xlink:href="#linear-gradient-3"/><linearGradient id="linear-gradient-88" x1="537.89" y1="106.8" x2="126.72" y2="58.6" xlink:href="#linear-gradient-3"/></defs><title>ethereum</title><g class="cls-4"><g id="content"><g id="_6" data-name="6"><g class="cls-5"><path class="cls-6" d="M202.17,390a12.8,12.8,0,0,1-5.68-1.34l-67-38.83c-2.18-1.3-3.41-3.06-3.46-5a5.08,5.08,0,0,1,2.45-4.32l0,0,68.45-39a12.82,12.82,0,0,1,12.24-.37l67,38.88a6.44,6.44,0,0,1,2.78,5.43,4.84,4.84,0,0,1-2.51,4l-67.94,38.8A12.72,12.72,0,0,1,202.17,390Zm-73.26-48.75a4.25,4.25,0,0,0-2.06,3.59c0,1.61,1.12,3.12,3,4.26l67,38.81a11.79,11.79,0,0,0,11.22-.37l67.94-38.8a4,4,0,0,0,2.08-3.33,5.62,5.62,0,0,0-2.39-4.68l-67-38.85a12,12,0,0,0-11.42.37Z" transform="translate(-57.02 -22.46)"/></g><path class="cls-7" d="M293.42,299s-6.08-.67-4.85,6.21l-77.66-45.07a16.87,16.87,0,0,0-16,.49l-69.52,39.56c-6.82-3.13-13.09-4.14-15.89.45-5.1,8.31-1.67,12.84,1.2,15.63a10.33,10.33,0,0,0,2.64,2.05l.14.08,80.75,46.78a16.58,16.58,0,0,0,15.78-.5L292,317.81S304,310.54,293.42,299Z" transform="translate(-57.02 -22.46)"/><g class="cls-8"><path class="cls-9" d="M293.42,299s-6.08-.67-4.85,6.21l-77.66-45.07a16.87,16.87,0,0,0-16,.49l-69.52,39.56c-6.82-3.13-13.09-4.14-15.89.45-5.1,8.31-1.67,12.84,1.2,15.63a10.33,10.33,0,0,0,2.64,2.05l.14.08,80.75,46.78a16.58,16.58,0,0,0,15.78-.5L292,317.81S304.05,310.87,293.42,299Z" transform="translate(-57.02 -22.46)"/></g><g class="cls-8"><path class="cls-10" d="M293.42,299s-6.08-.67-4.85,6.21l-77.66-45.07a16.87,16.87,0,0,0-16,.49l-69.52,39.56c-6.82-3.13-13.09-4.14-15.89.45-5.1,8.31-1.67,12.84,1.2,15.63a10.33,10.33,0,0,0,2.64,2.05l.14.08,80.75,46.78a16.58,16.58,0,0,0,15.78-.5L292,317.81S303.82,310.66,293.42,299Z" transform="translate(-57.02 -22.46)"/></g><path class="cls-11" d="M112,298.05l82.76-47.18a16.87,16.87,0,0,1,16-.5l80.76,46.87c4.17,3,5,9.12.37,11.81l-82.07,46.89a16.61,16.61,0,0,1-15.78.51l-80.75-46.79C107.56,306.22,107.89,300.81,112,298.05Z" transform="translate(-57.02 -22.46)"/><path class="cls-12" d="M118.66,298.55l77.42-44.12a14.08,14.08,0,0,1,13.39-.42l75.81,44c3.48,2.54,4.16,7.62.31,9.86l-76.85,43.89a13.86,13.86,0,0,1-13.17.41l-75.79-43.9C114.94,305.36,115.22,300.85,118.66,298.55Z" transform="translate(-57.02 -22.46)"/></g><g id="_5" data-name="5"><g class="cls-13"><g class="cls-14"><polygon class="cls-15" points="75.12 197.14 37.56 219.03 0 197.14 37.56 175.24 75.12 197.14"/><polygon class="cls-16" points="75.12 190.09 37.56 211.99 0 190.09 37.56 168.2 75.12 190.09"/><polygon class="cls-17" points="75.12 190.09 37.56 119.08 37.56 211.99 75.12 190.09"/><polygon class="cls-18" points="0 190.09 37.56 119.08 37.56 211.99 0 190.09"/><polygon class="cls-19" points="75.12 197.14 37.56 254.82 37.56 219.03 75.12 197.14"/><polygon class="cls-20" points="0 197.14 37.56 254.82 37.56 219.03 0 197.14"/></g><g class="cls-14"><polygon class="cls-21" points="75.12 197.02 37.56 218.91 0 197.02 37.56 175.12 75.12 197.02"/><polygon class="cls-22" points="75.12 189.97 37.56 211.87 0 189.97 37.56 168.08 75.12 189.97"/><polygon class="cls-23" points="75.12 189.97 37.56 118.96 37.56 211.87 75.12 189.97"/><polygon class="cls-24" points="0 189.97 37.56 118.96 37.56 211.87 0 189.97"/><polygon class="cls-25" points="75.12 197.02 37.56 254.7 37.56 218.91 75.12 197.02"/><polygon class="cls-26" points="0 197.02 37.56 254.7 37.56 218.91 0 197.02"/></g></g><g class="cls-14"><polygon class="cls-27" points="94.17 211.34 56.61 233.23 19.05 211.34 56.61 189.44 94.17 211.34"/><polygon class="cls-28" points="94.17 204.29 56.61 226.19 19.05 204.29 56.61 182.4 94.17 204.29"/><polygon class="cls-29" points="94.17 204.29 56.61 133.28 56.61 226.19 94.17 204.29"/><polygon class="cls-30" points="19.05 204.29 56.61 133.28 56.61 226.19 19.05 204.29"/><polygon class="cls-31" points="94.17 211.34 56.61 269.02 56.61 233.23 94.17 211.34"/><polygon class="cls-32" points="19.05 211.34 56.61 269.02 56.61 233.23 19.05 211.34"/></g><g class="cls-14"><polygon class="cls-33" points="94.17 211.22 56.61 233.11 19.05 211.22 56.61 189.32 94.17 211.22"/><polygon class="cls-34" points="94.17 204.17 56.61 226.07 19.05 204.17 56.61 182.28 94.17 204.17"/><polygon class="cls-35" points="94.17 204.17 56.61 133.16 56.61 226.07 94.17 204.17"/><polygon class="cls-36" points="19.05 204.17 56.61 133.16 56.61 226.07 19.05 204.17"/><polygon class="cls-37" points="94.17 211.22 56.61 268.9 56.61 233.11 94.17 211.22"/><polygon class="cls-38" points="19.05 211.22 56.61 268.9 56.61 233.11 19.05 211.22"/></g></g><g id="_4" data-name="4"><g class="cls-13"><g class="cls-14"><polygon class="cls-39" points="268.75 210.19 243.38 224.97 218.02 210.19 243.38 195.4 268.75 210.19"/><polygon class="cls-40" points="268.75 205.43 243.38 220.22 218.02 205.43 243.38 190.65 268.75 205.43"/><polygon class="cls-41" points="268.75 205.43 243.38 157.48 243.38 220.22 268.75 205.43"/><polygon class="cls-42" points="218.02 205.43 243.38 157.48 243.38 220.22 218.02 205.43"/><polygon class="cls-43" points="268.75 210.19 243.38 249.14 243.38 224.97 268.75 210.19"/><polygon class="cls-44" points="218.02 210.19 243.38 249.14 243.38 224.97 218.02 210.19"/></g><g class="cls-14"><polygon class="cls-45" points="268.75 210.44 243.38 225.22 218.02 210.44 243.38 195.65 268.75 210.44"/><polygon class="cls-46" points="268.75 205.68 243.38 220.47 218.02 205.68 243.38 190.9 268.75 205.68"/><polygon class="cls-47" points="268.75 205.68 243.38 157.73 243.38 220.47 268.75 205.68"/><polygon class="cls-48" points="218.02 205.68 243.38 157.73 243.38 220.47 218.02 205.68"/><polygon class="cls-49" points="268.75 210.44 243.38 249.39 243.38 225.22 268.75 210.44"/><polygon class="cls-50" points="218.02 210.44 243.38 249.39 243.38 225.22 218.02 210.44"/></g></g><g class="cls-14"><polygon class="cls-51" points="254.36 219.52 229 234.31 203.64 219.52 229 204.74 254.36 219.52"/><polygon class="cls-52" points="254.36 214.77 229 229.55 203.64 214.77 229 199.98 254.36 214.77"/><polygon class="cls-53" points="254.36 214.77 229 166.82 229 229.55 254.36 214.77"/><polygon class="cls-54" points="203.64 214.77 229 166.82 229 229.55 203.64 214.77"/><polygon class="cls-55" points="254.36 219.52 229 258.48 229 234.31 254.36 219.52"/><polygon class="cls-56" points="203.64 219.52 229 258.48 229 234.31 203.64 219.52"/></g><g class="cls-14"><polygon class="cls-57" points="254.36 219.77 229 234.56 203.64 219.77 229 204.99 254.36 219.77"/><polygon class="cls-58" points="254.36 215.02 229 229.8 203.64 215.02 229 200.23 254.36 215.02"/><polygon class="cls-59" points="254.36 215.02 229 167.07 229 229.8 254.36 215.02"/><polygon class="cls-60" points="203.64 215.02 229 167.07 229 229.8 203.64 215.02"/><polygon class="cls-61" points="254.36 219.77 229 258.73 229 234.56 254.36 219.77"/><polygon class="cls-62" points="203.64 219.77 229 258.73 229 234.56 203.64 219.77"/></g></g><g id="_3" data-name="3"><path class="cls-63" d="M278.28,281.79l-.12-189A4.47,4.47,0,0,1,276,95.6l-67.94,38.8a12.31,12.31,0,0,1-11.65.37L129.41,96A6.08,6.08,0,0,1,126.25,92l0,188.46c-.36,1.85.56,3.93,3.16,5.48l67,38.81a12.24,12.24,0,0,0,11.64-.37L276,285.63a4.43,4.43,0,0,0,2.3-3.84Z" transform="translate(-57.02 -22.46)"/><path class="cls-64" d="M128.15,277.53l68.45-39a12.44,12.44,0,0,1,11.84-.36l67,38.87c3.08,2.25,3.68,6.74.27,8.72l-67.93,38.8a12.26,12.26,0,0,1-11.65.37l-67-38.82C124.86,283.56,125.11,279.57,128.15,277.53Z" transform="translate(-57.02 -22.46)"/><path class="cls-65" d="M278.08,281.52a4.46,4.46,0,0,1-2.3,4.23l-67.94,38.8a12.25,12.25,0,0,1-11.65.37l-67-38.82a5.91,5.91,0,0,1-3.21-4.24v19.06c-.54,1.93.33,4.17,3.08,5.81l67,38.82a12.28,12.28,0,0,0,11.65-.37l67.93-38.8a4.45,4.45,0,0,0,2.3-4.23h0l.16-20.63Z" transform="translate(-57.02 -22.46)"/><path class="cls-66" d="M128.15,260l68.45-39a12.44,12.44,0,0,1,11.84-.37l67,38.88c3.08,2.24,3.68,6.73.27,8.71L207.8,307a12.26,12.26,0,0,1-11.65.37l-67-38.81C124.86,266,125.11,262,128.15,260Z" transform="translate(-57.02 -22.46)"/><g class="cls-67"><path class="cls-68" d="M202.17,195.09a12.67,12.67,0,0,1-5.68-1.34l-67-38.83c-2.18-1.3-3.41-3.06-3.46-5a5.09,5.09,0,0,1,2.45-4.33l0,0,68.45-39a12.82,12.82,0,0,1,12.24-.37l67,38.88a6.44,6.44,0,0,1,2.78,5.43,4.83,4.83,0,0,1-2.51,4l-67.94,38.8A12.62,12.62,0,0,1,202.17,195.09Zm-73.26-48.75a4.26,4.26,0,0,0-2.06,3.59c0,1.61,1.12,3.12,3,4.26l67,38.81a11.77,11.77,0,0,0,11.21-.37l67.95-38.8a4,4,0,0,0,2.08-3.33,5.59,5.59,0,0,0-2.39-4.67l-67-38.85a12,12,0,0,0-11.42.36Z" transform="translate(-57.02 -22.46)"/></g></g><g id="_2" data-name="2"><polygon class="cls-69" points="199.78 177.23 148.48 207.13 97.18 177.23 148.48 147.32 199.78 177.23"/><polygon class="cls-70" points="199.78 167.61 148.48 197.51 97.18 167.61 148.48 137.71 199.78 167.61"/><polygon class="cls-71" points="199.78 167.61 148.48 70.62 148.48 197.51 199.78 167.61"/><polygon class="cls-72" points="97.18 167.61 148.48 70.62 148.48 197.51 97.18 167.61"/><polygon class="cls-73" points="199.78 177.23 148.48 256.01 148.48 207.13 199.78 177.23"/><polygon class="cls-74" points="97.18 177.23 148.48 256.01 148.48 207.13 97.18 177.23"/><g class="cls-14"><polygon class="cls-75" points="199.78 177.15 148.48 207.06 97.18 177.15 148.48 147.25 199.78 177.15"/><polygon class="cls-76" points="199.78 167.53 148.48 197.44 97.18 167.53 148.48 137.63 199.78 167.53"/><polygon class="cls-77" points="199.78 167.53 148.48 70.55 148.48 197.44 199.78 167.53"/><polygon class="cls-78" points="97.18 167.53 148.48 70.55 148.48 197.44 97.18 167.53"/><polygon class="cls-79" points="199.78 177.15 148.48 255.94 148.48 207.06 199.78 177.15"/><polygon class="cls-80" points="97.18 177.15 148.48 255.94 148.48 207.06 97.18 177.15"/></g><g class="cls-81"><polygon class="cls-82" points="191.24 170.89 139.94 200.79 88.64 170.89 139.94 140.99 191.24 170.89"/><polygon class="cls-83" points="191.24 161.27 139.94 191.17 88.64 161.27 139.94 131.37 191.24 161.27"/><polygon class="cls-84" points="191.24 161.27 139.94 64.28 139.94 191.17 191.24 161.27"/><polygon class="cls-85" points="88.64 161.27 139.94 64.28 139.94 191.17 88.64 161.27"/><polygon class="cls-86" points="191.24 170.89 139.94 249.67 139.94 200.79 191.24 170.89"/><polygon class="cls-87" points="88.64 170.89 139.94 249.67 139.94 200.79 88.64 170.89"/><g class="cls-14"><polygon class="cls-88" points="191.24 170.82 139.94 200.72 88.64 170.82 139.94 140.91 191.24 170.82"/><polygon class="cls-89" points="191.24 161.19 139.94 191.1 88.64 161.19 139.94 131.29 191.24 161.19"/><polygon class="cls-90" points="191.24 161.19 139.94 64.21 139.94 191.1 191.24 161.19"/><polygon class="cls-91" points="88.64 161.19 139.94 64.21 139.94 191.1 88.64 161.19"/><polygon class="cls-92" points="191.24 170.82 139.94 249.6 139.94 200.72 191.24 170.82"/><polygon class="cls-93" points="88.64 170.82 139.94 249.6 139.94 200.72 88.64 170.82"/></g></g></g><g id="_1" data-name="1"><path class="cls-94" d="M128.58,87.64l68.45-39a12.44,12.44,0,0,1,11.84-.36l67,38.87c3.08,2.25,3.67,6.74.27,8.72l-67.94,38.8a12.25,12.25,0,0,1-11.65.37l-67-38.82C125.29,93.67,125.54,89.68,128.58,87.64Z" transform="translate(-57.02 -22.46)"/><g class="cls-5"><path class="cls-95" d="M202.75,121.26a12.6,12.6,0,0,1-5.67-1.34L130,81.09c-2.18-1.3-3.41-3.06-3.46-5A5.08,5.08,0,0,1,129,71.8l0,0,68.44-39a12.84,12.84,0,0,1,12.25-.37l67,38.88a6.48,6.48,0,0,1,2.79,5.43,4.85,4.85,0,0,1-2.51,4l-67.95,38.8A12.72,12.72,0,0,1,202.75,121.26ZM129.49,72.51a4.27,4.27,0,0,0-2.06,3.59c0,1.61,1.12,3.12,3,4.26l67,38.81a11.79,11.79,0,0,0,11.22-.37L276.64,80a4,4,0,0,0,2.09-3.33,5.6,5.6,0,0,0-2.4-4.68l-67-38.85a12,12,0,0,0-11.41.37Z" transform="translate(-57.02 -22.46)"/></g><g class="cls-5"><path class="cls-96" d="M202.75,112.7a12.73,12.73,0,0,1-5.67-1.34L130,72.53c-2.18-1.3-3.41-3.06-3.46-5A5.08,5.08,0,0,1,129,63.24l0,0,68.44-39a12.84,12.84,0,0,1,12.25-.37l67,38.88a6.48,6.48,0,0,1,2.79,5.43,4.87,4.87,0,0,1-2.51,4L209.12,111A12.72,12.72,0,0,1,202.75,112.7ZM129.49,64a4.27,4.27,0,0,0-2.06,3.59c0,1.61,1.12,3.12,3,4.26l67,38.81a11.79,11.79,0,0,0,11.22-.37l67.94-38.8a4,4,0,0,0,2.09-3.33,5.6,5.6,0,0,0-2.4-4.68l-67-38.85a12,12,0,0,0-11.41.37Z" transform="translate(-57.02 -22.46)"/></g></g></g></g></svg>